<?xml version="1.0" encoding="UTF-8" standalone="no"?>
<svg
   version="1.0"
   width="512.000000pt"
   height="512.000000pt"
   viewBox="0 0 512.000000 512.000000"
   preserveAspectRatio="xMidYMid meet"
   id="svg10"
   sodipodi:docname="stitch.svg"
   inkscape:version="1.4.2 (f4327f4, 2025-05-13)"
   xmlns:inkscape="http://www.inkscape.org/namespaces/inkscape"
   xmlns:sodipodi="http://sodipodi.sourceforge.net/DTD/sodipodi-0.dtd"
   xmlns="http://www.w3.org/2000/svg"
   xmlns:svg="http://www.w3.org/2000/svg">
  <defs
     id="defs10">
    <filter
       id="mask-powermask-path-effect11_inverse"
       inkscape:label="filtermask-powermask-path-effect11"
       style="color-interpolation-filters:sRGB"
       height="100"
       width="100"
       x="-50"
       y="-50">
      <feColorMatrix
         id="mask-powermask-path-effect11_primitive1"
         values="1"
         type="saturate"
         result="fbSourceGraphic" />
      <feColorMatrix
         id="mask-powermask-path-effect11_primitive2"
         values="-1 0 0 0 1 0 -1 0 0 1 0 0 -1 0 1 0 0 0 1 0 "
         in="fbSourceGraphic" />
    </filter>
    <clipPath
       clipPathUnits="userSpaceOnUse"
       id="CLIP_PATH">
      <rect
         style="fill:#ffffff;stroke-width:11.1025"
         id="rect11"
         width="4253"
         height="10"
         x="240"
         y="-700"
         inkscape:label="RECT_CLIP"
         transform="scale(1,-1)" />
    </clipPath>
  </defs>
  <sodipodi:namedview
     id="namedview10"
     pagecolor="#ffffff"
     bordercolor="#666666"
     borderopacity="1.0"
     inkscape:showpageshadow="2"
     inkscape:pageopacity="0.0"
     inkscape:pagecheckerboard="0"
     inkscape:deskcolor="#d1d1d1"
     inkscape:document-units="pt"
     inkscape:zoom="2.4175594"
     inkscape:cx="269.69348"
     inkscape:cy="287.27319"
     inkscape:window-width="2560"
     inkscape:window-height="1369"
     inkscape:window-x="2552"
     inkscape:window-y="-8"
     inkscape:window-maximized="1"
     inkscape:current-layer="g10" />
  <g
     transform="translate(0.000000,512.000000) scale(0.100000,-0.100000)"
     fill="#000000"
     stroke="none"
     id="g10">
    <path
       d="m 650,4689 c -197,-33 -365,-215 -431,-465 -26,-102 -36,-301 -20,-415 25,-174 111,-378 229,-543 115,-160 303,-325 414,-362 63,-21 165,-15 228,13 25,11 71,41 102,66 l 57,46 16,-57 c 9,-31 35,-93 58,-136 49,-95 156,-209 260,-276 97,-63 79,-65 -198,-14 -95,17 -169,10 -210,-20 -16,-12 -25,-8 -72,30 -61,50 -161,103 -180,97 -27,-10 -10,-29 51,-61 35,-18 82,-49 104,-68 l 41,-35 -22,-45 c -19,-40 -25,-45 -47,-39 -14,3 -78,9 -143,12 -113,5 -119,5 -115,-13 3,-17 16,-20 108,-25 58,-4 120,-10 138,-14 31,-7 32,-9 32,-60 v -52 l -51,-11 c -65,-15 -180,-60 -199,-78 -10,-10 -11,-17 -4,-24 8,-8 34,-1 86,20 76,30 175,57 181,49 1,-2 16,-31 32,-64 16,-33 31,-62 32,-65 2,-3 -11,-14 -28,-24 -37,-22 -159,-135 -159,-147 0,-26 31,-15 72,24 25,25 67,59 94,77 l 47,33 31,-18 c 79,-46 91,-50 171,-50 61,0 101,7 170,29 154,51 212,38 260,-57 21,-42 25,-65 25,-135 0,-94 -15,-206 -36,-266 -30,-84 -60,-113 -171,-166 -131,-63 -185,-114 -210,-198 l -17,-60 -51,-11 c -106,-24 -275,-124 -275,-163 0,-27 15,-22 73,21 64,48 115,74 186,95 72,21 71,21 71,-16 0,-18 9,-53 20,-77 11,-24 20,-44 20,-46 0,-1 -17,-7 -37,-13 -49,-15 -143,-69 -143,-83 0,-22 31,-19 83,11 30,17 70,35 88,40 30,9 36,6 76,-31 25,-22 69,-51 98,-65 l 54,-23 -15,-37 c -19,-46 -15,-129 6,-129 11,0 17,15 21,55 10,94 17,100 108,100 87,0 158,18 246,63 88,44 157,100 281,231 103,107 114,116 148,116 82,0 116,-37 204,-220 34,-71 78,-145 101,-172 49,-55 148,-108 215,-115 50,-6 49,-4 61,-115 7,-61 13,-72 34,-59 10,6 11,26 4,85 -5,42 -7,79 -4,81 2,3 14,5 25,5 12,0 48,11 81,25 69,28 68,29 85,-62 13,-65 24,-83 42,-65 8,8 5,36 -7,97 l -18,85 30,38 c 16,20 37,52 47,70 9,17 21,32 26,32 19,0 116,-88 164,-148 38,-47 53,-59 63,-51 10,9 10,17 -5,42 -21,38 -141,160 -179,182 -28,16 -28,17 -28,118 0,94 -3,107 -32,169 -17,37 -46,88 -63,113 -44,64 -80,145 -80,181 0,18 9,62 21,99 31,101 28,175 -12,270 -36,88 -40,122 -16,158 40,62 123,72 319,42 l 117,-19 25,-55 c 13,-31 28,-73 31,-93 6,-29 12,-38 27,-38 19,0 20,4 14,43 -4,23 -17,65 -30,93 l -24,52 62,15 61,15 48,-46 c 27,-26 69,-75 94,-109 46,-65 59,-74 69,-48 7,17 -73,130 -134,188 l -39,38 32,32 c 17,18 36,41 42,51 10,19 15,19 74,8 35,-6 91,-25 123,-42 69,-35 76,-36 76,-11 0,26 -104,77 -188,93 -47,9 -61,15 -57,26 3,7 5,41 5,74 v 61 l 78,-5 c 49,-3 95,-13 126,-27 36,-15 53,-18 60,-11 30,31 -97,80 -205,80 h -67 l -30,53 c -69,122 -204,196 -387,212 -42,4 -123,0 -203,-9 -74,-9 -137,-16 -140,-16 -4,0 5,8 18,17 57,39 129,106 174,162 l 48,60 32,-47 c 112,-169 369,-174 542,-10 84,79 127,146 289,446 239,446 274,530 261,637 -14,118 -58,191 -146,239 -173,94 -426,-2 -611,-234 -66,-82 -177,-294 -225,-429 -16,-44 -31,-81 -34,-80 -3,0 -22,35 -42,78 -112,234 -351,466 -592,576 -402,183 -852,143 -1226,-108 -71,-48 -241,-207 -289,-271 -12,-16 -23,-27 -24,-25 -2,2 -52,162 -112,354 -60,193 -119,377 -133,409 -81,201 -249,300 -452,265 z"
       id="PATH_BORDER"
       sodipodi:nodetypes="ccccscccccccccccccccccccscccsccsccsccccsccscccccsccssscsccccccscsccscccccccsccsccccsccccsccscccccccsccccccccccccccsccsccccsccccsccccccccccccccscccc"
       inkscape:label="PATH_BORDER"
       clip-path="url(#CLIP_PATH)"
       style="fill:#d40000"
       transform="translate(0,-2.5000001e-5)" />
    <path
       d="m 649.75933,4687.3594 c -197,-33 -365,-215 -431,-465 -26,-102 -36,-301 -20,-415 25,-174 111,-378 229,-543 115,-160 303,-325 414,-362 63,-21 164.99997,-15 227.99997,13 25,11 71,41 102,66 l 57,46 16,-57 c 9,-31 35,-93 58,-136 49,-95 156.0001,-209 260.0001,-276 97,-63 79,-65 -198.0001,-14 -95,17 -169,10 -210,-20 -16,-12 -25,-8 -72,30 -61,50 -160.99997,103 -179.99997,97 -27,-10 -10,-29 51,-61 35,-18 81.99997,-49 103.99997,-68 l 41,-35 -22,-45 c -19,-40 -25,-45 -47,-39 -14,3 -77.99997,9 -142.99997,12 -113,5 -119,5 -115,-13 3,-17 16,-20 108,-25 58,-4 119.99996,-10 137.99997,-14 31,-7 32,-9 32,-60 v -52 l -51.00001,-11 c -64.99996,-15 -179.99996,-60 -198.99996,-78 -10,-10 -11,-17 -4,-24 8,-8 34,-1 86,20 76,30 174.99997,57 180.99997,49 1,-2 16,-31 32,-64 16,-33 31,-62 32,-65 2,-3 -11,-14 -28,-24 -37,-22 -158.99997,-135 -158.99997,-147 0,-26 31,-15 71.99997,24 25,25 67,59 94,77 l 47,33 31,-18 c 79,-46 91,-50 171,-50 61,0 101.0001,7 170.0001,29 154,51 212,38 260,-57 21,-42 25,-65 25,-135 0,-94 -15,-206 -36,-266 -30,-84 -60,-113 -171,-166 -131,-63 -185.0001,-114 -210.0001,-198 l -17,-60 -51,-11 c -106,-24 -275,-123.99993 -275,-162.99993 0,-27 15,-22 73,21 64,47.99993 115,73.99993 186,94.99993 72,21 71,21 71,-16 0,-18 9,-52.99993 20,-76.99993 11,-24 20,-44 20,-46 0,-1 -17,-7 -37,-13 -49,-15 -143,-69 -143,-83 0,-22 31,-19 83,11 30,17 70,35 88,40 30,9 36,6 76.0001,-31 25,-22 69,-51 98,-65 l 54,-23 -15,-37 c -19,-46 -15,-129 6,-129 11,0 17,15 21,55 10,94 17,100 108,100 87,0 158,18 246,63 88,44 157,100 281,230.99993 103,107 114,116 148,116 82,0 116,-37 204,-219.99993 34,-71 78,-145 101,-172 49,-55 148,-108 215,-115 50,-6 49,-4 61,-115 7,-61 13,-72 34,-59 10,6 11,26 4,85 -5,42 -7,79 -4,81 2,3 14,5 25,5 12,0 48,11 81,25 69,28 68,29 85,-62 13,-65 24,-83 42,-65 8,8 5,36 -7,97 l -18,85 30,38 c 16,20 37,52 47,70 9,17 21,32 26,32 19,0 116,-88 164,-148 38,-47 53,-59 63,-51 10,9 10,17 -5,42 -21,38 -141,160 -179,182 -28,16 -28,17 -28,117.99993 0,94 -3,107 -32,169 -17,37 -46,88 -63,113 -44,64 -80,145 -80,181 0,18 9,62 21,99 31,101 28,175 -12,270 -36,88 -40,122 -16,158 40,62 123,72 319,42 l 117,-19 25,-55 c 13,-31 28,-73 31,-93 6,-29 12,-38 27,-38 19,0 20,4 14,43 -4,23 -17,65 -30,93 l -24,52 62,15 61,15 48,-46 c 27,-26 69,-75 94,-109 46,-65 59,-74 69,-48 7,17 -73,130 -134,188 l -39,38 32,32 c 17,18 36,41 42,51 10,19 15,19 74,8 35,-6 91,-25 123,-42 69,-35 76,-36 76,-11 0,26 -104,77 -188,93 -47,9 -61,15 -57,26 3,7 5,41 5,74 v 61 l 78,-5 c 49,-3 95,-13 126,-27 36,-15 53,-18 60,-11 30,31 -97,80 -205,80 h -67 l -30,53 c -69,122 -204,196 -387,212 -42,4 -123,0 -203,-9 -74,-9 -137,-16 -140,-16 -4,0 5,8 18,17 57,39 129,106 174,162 l 48,60 32,-47 c 112,-169 369,-174 542,-10 84,79 127,146 289,446 239,446 273.9999,530 260.9999,637 -13.9999,118 -57.9999,191 -145.9999,239 -173,94 -426,-2 -611,-234 -66,-82 -177,-294 -225,-429 -16,-44 -31,-81 -34,-80 -3,0 -22,35 -42,78 -112,234 -351,466 -592,576 -402,183 -852,143 -1226,-108 -71,-48 -241.0001,-207 -289.0001,-271 -12,-16 -23,-27 -24,-25 -2,2 -52,162 -112,354 -60,193 -119,377 -133,409 -81,201 -248.99997,300 -451.99997,265 z m 225,-81 c 63,-33 128.99997,-103 159.99997,-171 13,-29 62,-176 110,-327 47,-151 97,-304 110,-340 14,-36 36,-102 50,-147 14,-46 27,-83 29,-83 2,0 19,24 38,53 142.0001,213 415.0001,409 670.0001,482 327,92 687,38 968,-146 116,-76 246,-193 307,-275 57,-77 180,-311 189,-362 3,-18 10,-34 13,-37 4,-2 20,37 35,87 15,50 43,123 62,162 19,39 34,77 34,84 0,7 14,38 30,70 110,208 208,325 339,407 114,71 256,86 346,37 68,-37 105,-99 112,-186 10,-115 -22,-197 -219,-566 -167,-312 -204,-373 -275,-450 -107,-115 -228,-160 -353,-130 -42,10 -64,23 -104,64 -28,29 -59,64 -69,79 -31,46 -58,36 -126,-46 -96,-116 -235,-219 -401,-299 -97,-47 -95,-46 -87,-54 3,-3 20,1 39,10 67,31 356,87 528,101 304,25 544,-168 479,-386 -39,-130 -170,-181 -374,-145 -49,9 -124,16 -166,16 -64,0 -85,-4 -129,-28 -59,-30 -90,-76 -90,-130 0,-18 16,-73 35,-122 41,-104 43,-137 14,-239 -25,-89 -23,-169 7,-227 11,-21 47,-90 80,-153 l 59,-115 -1,-92 c -2,-79.99993 -6,-98.99993 -29,-142.99993 -33,-60 -108,-126 -167,-147 -24,-9 -70,-16 -103,-17 -149,-2 -257,81 -335,258 -58,132.99993 -100,196.99993 -145,224.99993 -40,24 -108,36 -150,26 -14,-4 -79,-62 -152,-136 -69,-71.99993 -147,-141.99993 -172,-156.99993 -25,-14 -59,-37 -74,-50 -81,-66 -279,-83 -387,-32 -145,69 -215.0001,218.99993 -160.0001,346.99993 29.0001,68 71.0001,104 185.0001,158 60,28 105,58 128,83 64,71 99,205 100,386 1,83 -3,108 -22,150 -58,130 -149,156 -338,95 -156.0001,-50 -237.0001,-38 -314.0001,47 -48,53 -79,121 -86,187 -9,82 3,124 47,167 64,64 101,66 325.0001,24 96,-18 305,-17 355,2 24,10 23,10 -11,17 -54,10 -176,72 -250,127 -94,69 -178.0001,162 -221.0001,244 -40,77 -78,200 -78,255 v 35 l -81,-82 c -94,-95 -149,-126 -235.99997,-131 -76,-5 -144,23 -238,98 -198,158 -378,421 -440,646 -37,134 -37,386 0,529 24,94 90,218 150,283 56,61 142,114 211,131 70,18 183,7 239,-21 z"
       id="PATH_BORDER-9"
       sodipodi:nodetypes="ccccscccccccccccccccccccscccsccsccsccccsccscccccsccssscsccccccscsccscccccccsccsccccsccccsccscccccccsccccccccccccccsccsccccsccccsccccccccccccccscccccccccsccccccssscccccccccccsccccscscccccccccccccccccccccccccsccccsccccccccc"
       style="display:inline" />
    <path
       d="m 3708.5986,1208.233 c -96,-12 -93,-5 -93,-216.00001 0,-181 0,-183 23,-188 12,-3 101,-11 198,-17 190,-13 213,-9 227,33 9,29 -1,373.00001 -11,384.00001 -11,10 -264,13 -344,4 z m 107,-45 c 0,-7 11,-39 25,-70 30,-69 24,-66 -38,13 -47,59 -47,68 -4,70 9,1 17,-5 17,-13 z m 80,5 c 0,-5 3,-18 6,-28 6,-16 5,-16 -9,2 -19,23 -21,35 -7,35 6,0 10,-4 10,-9 z m -194,-48 c 4,-28 23,-74 47,-113 44,-71.00001 27,-65.00001 -29,11 -20,27 -42,49 -50,49 -18,0 -20,86 -1,93 23,10 26,7 33,-40 z m 320,-37 c 3,-7 4,-33 2,-57 l -3,-44.00001 -17,52.00001 c -10,28 -18,54 -18,57 0,12 31,5 36,-8 z m -44,-246.00001 c 16,0 23,11 19,33 0,4 6,7 15,7 11,0 14,-8 12,-27 -3,-32 -21,-38 -82,-29 -30,5 -42,11 -42,24 0,9 -4,28 -8,42 -8,22 -5,21 29,-12 21,-21 47,-38 57,-38 z m -302,9 c 0,-6 -4,-7 -10,-4 -5,3 -10,11 -10,16 0,6 5,7 10,4 6,-3 10,-11 10,-16 z m 126,-16 c -7,-7 -26,7 -26,19 0,6 6,6 15,-2 9,-7 13,-15 11,-17 z"
       id="PATH_COLOR"
       sodipodi:nodetypes="cscccccscccssccsscccsccccccscscsccsccsscscssscs"
       style="display:inline;opacity:1;fill:#d40000"
       transform="translate(0,-2.5000001e-5)" />
    <path
       d="m 1880,3199 c -25,-5 -74,-14 -109,-20 -95,-17 -195,-80 -245,-154 -43,-63 -31,-118 29,-139 19,-7 201,-32 295,-41 149,-15 337,-37 350,-42 8,-3 26,-5 40,-4 14,1 113,-10 220,-24 292,-38 460,-32 560,20 37,19 70,70 70,108 0,46 -36,105 -79,126 -54,28 -321,67 -371,54 -28,-8 -198,16 -230,32 -14,7 -31,10 -39,7 -7,-2 -30,0 -50,6 -50,15 -300,65 -336,67 -16,1 -37,4 -45,7 -8,3 -35,2 -60,-3 z m -14,-73 c -17,-92 -94,-123 -161,-65 -19,17 -35,35 -35,41 0,14 81,47 141,56 30,5 56,7 58,6 2,-2 0,-19 -3,-38 z m 137,34 c 13,0 17,-8 17,-33 0,-47 39,-118 80,-145 29,-20 45,-23 92,-20 65,5 96,27 130,91 15,31 24,38 41,34 12,-3 43,-9 69,-12 44,-7 49,-10 58,-44 43,-155 211,-180 265,-38 l 16,42 82,-3 c 100,-5 159,-28 187,-74 37,-61 18,-115 -50,-142 -39,-15 -39,-15 -69,14 -23,23 -38,30 -69,30 -43,0 -87,-27 -98,-62 -6,-20 -11,-21 -95,-15 -157,12 -166,14 -174,53 -8,48 -59,102 -101,110 -46,8 -88,-10 -147,-65 l -48,-45 -112,12 c -203,22 -481,64 -514,78 -23,9 -33,20 -33,35 0,26 41,82 75,105 24,15 26,15 51,-15 53,-63 136,-81 189,-39 32,25 64,91 65,132 0,28 1,28 38,22 20,-3 45,-6 55,-6 z m 164,-30 c 48,-11 98,-22 111,-25 21,-5 22,-7 7,-34 -48,-94 -162,-94 -210,-1 -17,33 -20,80 -5,80 5,0 49,-9 97,-20 z m 485,-85 77,-7 -15,-37 c -18,-45 -39,-61 -79,-61 -37,0 -70,22 -90,60 -22,43 -20,63 8,57 12,-3 57,-9 99,-12 z m -257,-145 c 22,-8 55,-60 55,-86 0,-8 -145,4 -185,14 -30,9 -29,10 39,56 43,29 53,31 91,16 z m 494,-94 c 9,-11 5,-15 -20,-20 -17,-3 -43,-6 -57,-6 -24,0 -25,1 -7,20 21,23 67,26 84,6 z"
       id="path4"
       sodipodi:nodetypes="scccccsccsccscscssccscccssccccccccccccsccccccccscccccsscccsscccsccccscccccscc"
       transform="translate(0,-2.5000001e-5)" />
    <path
       d="M1731 3642 c-97 -52 -93 -200 7 -244 126 -56 243 62 183 185 -35 73 -117 98 -190 59z m146 -46 c34 -40 39 -74 17 -115 -23 -43 -83 -76 -121 -66 -14 3 -38 19 -54 35 -43 43 -41 100 6 147 33 33 39 35 82 30 35 -4 53 -12 70 -31z"
       id="path2"
       transform="translate(0,-2.5000001e-5)" />
    <path
       d="M3095 3610 c-91 -13 -154 -63 -175 -138 -37 -135 55 -253 197 -252 61 1 80 8 133 53 65 56 73 187 15 263 -20 26 -106 87 -117 83 -2 -1 -26 -5 -53 -9z m94 -51 c114 -64 115 -231 0 -289 -82 -42 -186 -10 -226 70 -29 56 -29 93 1 150 42 83 145 115 225 69z"
       id="path3"
       transform="translate(0,-2.5000001e-5)" />
    <path
       d="M3663 1689 c-42 -12 -47 -32 -48 -184 0 -157 -13 -150 240 -127 l189 17 -3 145 c-1 80 -5 148 -7 152 -7 11 -332 8 -371 -3z m335 -146 c2 -87 0 -113 -10 -113 -7 0 -83 -7 -167 -15 -85 -7 -159 -12 -163 -9 -10 6 -10 98 -2 182 8 74 -2 70 194 68 l145 -1 3 -112z"
       id="path5" />
    <path
       d="M4181 1673 c-41 -20 -88 -83 -97 -129 -15 -83 38 -174 101 -174 37 0 45 12 45 70 0 52 -8 69 -29 63 -15 -4 -18 -12 -13 -49 5 -50 -4 -55 -37 -20 -31 33 -37 92 -14 136 16 30 63 72 94 82 11 4 2 38 -10 38 -3 0 -21 -8 -40 -17z"
       id="path6" />
    <path
       d="M4660 1479 c0 -206 -8 -194 88 -136 63 38 129 105 138 141 24 96 -61 176 -185 176 l-41 0 0 -181z m120 125 c42 -17 70 -55 70 -93 0 -26 -50 -83 -107 -122 l-43 -30 0 131 c0 147 -1 146 80 114z"
       id="path7" />
    <path
       d="M4422 1629 c-67 -43 -105 -155 -61 -182 21 -13 61 -2 96 27 l28 23 3 -54 c4 -75 24 -113 62 -113 46 0 70 39 70 117 0 80 -20 121 -60 130 -19 3 -30 12 -30 23 0 22 -31 50 -56 50 -10 0 -34 -10 -52 -21z m68 -39 c0 -21 -79 -110 -98 -110 -18 0 -14 29 9 66 35 58 89 84 89 44z m80 -69 c11 -21 14 -110 4 -135 -3 -9 -12 -16 -19 -16 -18 0 -25 23 -25 85 0 81 17 108 40 66z"
       id="path8" />
    <path
       d="m 3713,1211 c -96,-12 -93,-5 -93,-216 0,-181 0,-183 23,-188 12,-3 101,-11 198,-17 190,-13 213,-9 227,33 9,29 -1,373 -11,384 -11,10 -264,13 -344,4 z m 296.683,-23.5476 c 0,-0.6385 25.8861,2.6796 30.4276,-14.1208 17.031,-63.0023 27.3913,-251.30173 -15.9987,-343.79832 -9.1464,-19.49778 -25.3738,9.66953 -40.555,-4.50252 -11.6057,-10.8342 -47.0033,-13.38215 -90.2848,-11.82169 -96.1864,3.46788 -231.3099,27.22642 -230.7682,25.42075 -18.3174,30.02548 -17.9151,241.45648 -7.9517,314.07418 2.1525,15.6881 13.6391,20.715 15.5335,20.715 0.817,0 34.4691,-9.5897 46.5202,-9.1156 76.4523,3.0077 293.0771,27.4682 293.0771,23.149 z M 3662.4833,844.05313 C 0,5120 0,5120 3662.4833,844.05313 Z"
       id="path9"
       sodipodi:nodetypes="cscccccssssscssssss" />
    <path
       d="M4207 1082 c-12 -14 -17 -37 -17 -86 0 -38 -10 -105 -22 -151 -20 -79 -21 -84 -5 -109 27 -40 62 -58 117 -59 57 -1 96 22 119 68 12 24 11 32 -2 61 -9 18 -25 35 -36 39 -26 8 -26 16 -1 57 l19 32 -2 -44 c-2 -34 2 -45 14 -48 13 -2 18 8 24 48 l7 52 57 -7 c61 -8 67 -13 77 -62 3 -19 12 -33 20 -33 8 0 14 -10 14 -24 0 -41 28 -39 93 7 64 44 107 96 107 129 0 66 -74 128 -153 128 -37 0 -37 0 -38 -42 0 -43 -16 -135 -18 -109 0 7 -13 40 -28 73 -47 106 -109 110 -150 8 -12 -30 -23 -46 -23 -35 -1 83 -126 160 -173 107z m78 -34 c26 -12 55 -54 55 -80 0 -7 -9 -30 -20 -51 -28 -51 -25 -69 15 -104 40 -36 42 -46 15 -73 -18 -18 -42 -25 -80 -21 -77 8 -86 26 -60 127 11 42 20 108 20 146 0 74 5 79 55 56z m220 -39 c9 -17 15 -33 13 -35 -8 -7 -78 9 -78 18 0 19 21 48 35 48 8 0 22 -14 30 -31z m190 17 c39 -17 59 -48 51 -81 -6 -23 -90 -105 -107 -105 -5 0 -9 17 -9 39 0 68 13 161 22 161 5 0 24 -6 43 -14z"
       id="path10" />
    <path
       d="M 5231.5,3184"
       id="path1" />
    <path
       style="fill:#ffffff;stroke-width:0.41364"
       d="m 409.20381,248.16803 c -7.61631,-2.05136 -14.01559,-8.58083 -16.19988,-16.52946 -1.98608,-7.22737 2.51626,-17.56683 9.73642,-22.3593 12.53568,-8.32071 29.23622,-1.6234 33.0223,13.24271 2.85349,11.20429 -4.01375,22.70584 -15.31447,25.6493 -2.98873,0.77846 -8.34777,0.77692 -11.24437,-0.003 z"
       id="path11"
       transform="matrix(7.5,0,0,-7.5,0,5120)" />
    <path
       style="fill:#ffffff;stroke-width:0.41364"
       d="m 234.7258,226.34026 c -2.77835,-1.32458 -6.79057,-5.10044 -8.05934,-7.58456 -1.45694,-2.85255 -1.46461,-7.73662 -0.0167,-10.65868 1.15612,-2.33326 5.20762,-6.8311 7.34072,-8.14943 1.31032,-0.80982 1.83253,-0.87307 5.44312,-0.65931 2.19657,0.13005 4.9179,0.55954 6.04741,0.95443 4.3308,1.51409 8.49319,7.49729 8.49385,12.20942 7e-4,4.98359 -4.21531,10.65144 -9.91975,13.33575 -3.63652,1.71122 -6.53819,1.88303 -9.32927,0.55238 z"
       id="path12"
       transform="matrix(7.5,0,0,-7.5,0,5120)" />
    <path
       style="fill:#ffffff;stroke-width:0.41364"
       d="m 232.67267,277.4609 c -0.91001,-0.36826 -2.39911,-1.17486 -3.30912,-1.79245 -1.89922,-1.28891 -6.41143,-5.90488 -6.41143,-6.55886 0,-0.64799 2.73429,-2.34226 5.79263,-3.58934 5.46425,-2.22811 11.59093,-3.70142 18.50874,-4.45087 1.73812,-0.1883 1.75789,-0.17571 1.75079,1.11452 -0.022,4.0028 -2.0756,9.6 -4.56052,12.43017 -2.80837,3.19856 -7.87436,4.42377 -11.77109,2.84683 z"
       id="path13"
       transform="matrix(7.5,0,0,-7.5,0,5120)" />
    <path
       style="fill:#ffffff;stroke-width:0.41364"
       d="m 349.52606,311.02787 c -11.38786,-0.9733 -15.41781,-1.81732 -16.81887,-3.52249 -0.26404,-0.32135 -0.79152,-1.79417 -1.17217,-3.27294 -0.98061,-3.80944 -2.494,-6.39749 -5.58646,-9.55344 -4.59157,-4.68583 -9.02412,-6.14669 -14.44026,-4.75914 -4.58695,1.17512 -8.25553,3.64946 -15.90952,10.73045 l -3.95247,3.65656 -10.04573,-1.08138 c -18.09002,-1.94731 -41.18224,-5.03678 -56.16662,-7.51443 -17.70404,-2.92734 -21.09565,-4.18835 -21.09565,-7.84338 0,-1.76388 2.02219,-5.6451 4.58507,-8.80019 2.25081,-2.77092 6.60373,-6.27171 7.79831,-6.27171 0.39074,0 2.48914,1.76717 4.6631,3.92705 3.13299,3.1127 4.59481,4.23201 7.04933,5.39766 5.59032,2.65483 10.84792,2.83519 15.46272,0.53045 5.22723,-2.61061 10.88932,-12.65237 10.91192,-19.35238 0.0107,-3.18336 -0.10441,-3.14552 6.9876,-2.29608 3.43373,0.41128 6.42764,0.97008 6.65314,1.24179 0.22549,0.2717 0.58212,2.15782 0.79251,4.19138 0.8648,8.3589 6.44791,16.99653 13.08492,20.24372 2.91302,1.42521 7.65015,1.76318 12.59861,0.89884 7.34133,-1.28229 10.82933,-4.16381 15.31755,-12.65419 2.00732,-3.79726 2.52079,-4.04475 6.71937,-3.23869 1.87108,0.35922 4.89106,0.86523 6.71108,1.12448 1.82001,0.25924 4.07949,0.80785 5.02105,1.21913 1.48224,0.64746 1.8291,1.06095 2.58525,3.08195 0.48033,1.28379 0.87332,2.54626 0.87332,2.80549 0,0.25923 0.77151,2.06709 1.71447,4.01748 5.1375,10.62628 16.45373,15.27405 25.12745,10.32029 4.21749,-2.40871 7.27761,-6.64973 9.60746,-13.31499 l 0.98507,-2.81809 5.58414,0.25098 c 12.29924,0.55277 18.03623,1.54581 22.974,3.97667 5.21557,2.56761 8.8158,7.58009 9.19306,12.79919 0.36832,5.09539 -2.16489,8.7278 -7.9291,11.36961 -5.47609,2.50977 -5.60549,2.48665 -10.39916,-1.85756 -3.34444,-3.03087 -4.60818,-3.46543 -9.43834,-3.2456 -3.08655,0.14048 -4.19735,0.38193 -6.05502,1.31614 -2.85323,1.43488 -5.07008,3.56033 -6.03078,5.78214 -1.36674,3.16084 -1.38956,3.17137 -6.75277,3.11426 -2.63788,-0.0281 -7.6813,-0.29765 -11.20758,-0.59903 z"
       id="path14"
       transform="matrix(7.5,0,0,-7.5,0,5120)" />
    <path
       style="fill:#ffffff;stroke-width:0.41364"
       d="m 286.27181,281.65464 c -4.16049,-1.51282 -7.58988,-4.75484 -9.62109,-9.09542 -1.28859,-2.75365 -1.91886,-6.62948 -1.40864,-8.66236 0.3367,-1.34151 -1.04474,-1.52886 15.54705,2.10848 14.28849,3.1324 14.89105,3.30485 14.89105,4.2616 0,1.13725 -2.76514,5.44741 -4.88496,7.61444 -2.77986,2.84176 -5.62289,4.1231 -9.53509,4.29741 -2.17631,0.097 -3.72878,-0.0661 -4.98832,-0.52415 z"
       id="path15"
       transform="matrix(7.5,0,0,-7.5,0,5120)" />
    <path
       style="fill:#ffffff;stroke-width:0.41364"
       d="m 312.91889,306.91155 c -8.2265,-0.81832 -13.02967,-1.7959 -13.02967,-2.6519 0,-0.78197 7.19052,-6.06704 11.03686,-8.11216 5.00253,-2.65987 10.60521,0.031 13.95635,6.70294 0.58943,1.17353 1.18677,2.70911 1.32743,3.41241 l 0.25575,1.27872 -4.0847,-0.0476 c -2.24658,-0.0262 -6.50449,-0.28827 -9.46202,-0.58246 z"
       id="path16"
       transform="matrix(7.5,0,0,-7.5,0,5120)" />
    <path
       style="fill:#ffffff;stroke-width:0.41364"
       d="m 348.90559,290.19746 c -2.36379,-0.57177 -4.55893,-1.87167 -6.48987,-3.84312 -3.09128,-3.15612 -5.5907,-9.03316 -4.52134,-10.63127 0.33954,-0.50742 1.18356,-0.49159 6.1162,0.11471 4.6411,0.57048 18.10763,1.9145 19.24004,1.92025 0.32006,0.002 -1.34379,4.23245 -2.77602,7.05882 -2.23717,4.41484 -6.79608,6.53514 -11.56901,5.38061 z"
       id="path17"
       transform="matrix(7.5,0,0,-7.5,0,5120)" />
    <path
       style="fill:#ffffff;stroke-width:0.41364"
       d="m 372.68991,311.40867 c 0,-0.70264 2.64393,-2.97924 4.22653,-3.63932 0.84583,-0.35278 2.56467,-0.64143 3.81965,-0.64143 1.94096,0 2.48355,0.18122 3.63263,1.21327 1.54311,1.38592 1.35969,1.78761 -1.13098,2.47682 -2.27901,0.63064 -10.54783,1.09368 -10.54783,0.59066 z"
       id="path18"
       transform="matrix(7.5,0,0,-7.5,0,5120)" />
  </g>
</svg>
